<?xml version="1.0" standalone="no"?>
<!DOCTYPE svg PUBLIC "-//W3C//DTD SVG 20010904//EN"
 "http://www.w3.org/TR/2001/REC-SVG-20010904/DTD/svg10.dtd">
<svg version="1.0" xmlns="http://www.w3.org/2000/svg"
 width="404.000000pt" height="404.000000pt" viewBox="0 0 404.000000 404.000000"
 preserveAspectRatio="xMidYMid meet">
<metadata>
Created by potrace 1.14, written by Peter Selinger 2001-2017
</metadata>
<g transform="translate(0.000000,404.000000) scale(0.100000,-0.100000)"
fill="#000000" stroke="none">
<path d="M0 3295 c0 -542 3 -745 11 -745 6 0 28 17 49 38 28 28 44 59 69 134
l33 98 121 123 c92 93 143 136 207 174 47 27 121 71 165 97 118 69 170 108
274 204 137 126 148 139 177 196 28 55 28 47 8 339 l-6 87 -554 0 -554 0 0
-745z"/>
<path d="M1532 4020 c-11 -18 -10 -20 10 -20 30 0 52 -15 44 -29 -4 -6 0 -11
9 -11 9 0 19 9 22 20 6 24 23 27 23 4 0 -9 -21 -37 -47 -62 -35 -33 -48 -53
-48 -74 -1 -32 8 -36 27 -10 23 32 62 52 100 52 20 0 40 -4 43 -10 4 -6 -6
-10 -24 -10 -35 0 -111 -28 -111 -40 0 -5 -17 -25 -37 -44 -37 -34 -37 -36
-18 -50 20 -16 20 -16 -2 -22 -14 -4 -20 -11 -16 -20 3 -8 -5 -26 -18 -40
l-24 -26 43 28 c23 15 42 33 42 40 0 16 53 54 75 54 9 0 13 4 10 10 -3 6 1 7
9 4 9 -3 14 -10 11 -14 -10 -17 30 -4 53 18 33 29 50 28 64 -5 l11 -28 10 28
c6 15 14 27 18 27 12 0 17 -38 6 -49 -7 -7 -6 -15 3 -26 14 -17 40 -20 40 -5
0 6 9 10 21 10 11 0 18 4 14 9 -7 12 29 33 39 24 11 -11 7 -23 -8 -23 -9 0
-12 -7 -9 -20 3 -11 9 -18 13 -15 5 3 35 8 67 10 56 5 112 14 143 22 8 3 38 8
66 12 56 7 58 3 27 -46 -13 -19 -12 -23 4 -31 10 -6 17 -13 16 -16 -9 -19 -2
-27 12 -16 20 17 31 5 15 -15 -23 -28 -71 -47 -106 -43 -36 4 -44 -5 -18 -20
13 -8 14 -13 5 -33 l-12 -24 20 23 c11 12 21 28 24 35 3 9 9 9 26 -1 19 -11
21 -10 21 8 0 11 7 20 16 20 9 0 12 -5 8 -12 -5 -7 -3 -8 6 -3 10 6 12 4 7 -9
-4 -10 -7 -20 -7 -22 0 -2 -6 -4 -14 -4 -15 0 -86 -74 -86 -90 0 -26 44 5 54
38 4 13 19 27 33 33 30 11 54 12 50 1 -4 -15 39 -49 61 -47 12 1 22 -4 22 -10
0 -18 28 -13 80 12 25 12 52 23 60 25 8 2 18 8 22 13 5 6 8 3 8 -7 0 -10 -16
-22 -47 -32 -25 -9 -54 -23 -64 -32 -12 -11 -49 -18 -121 -23 -63 -4 -117 -14
-137 -24 -18 -9 -37 -15 -41 -12 -3 2 -40 -9 -81 -24 -41 -16 -105 -32 -142
-35 -46 -5 -78 -14 -97 -28 -15 -11 -33 -17 -39 -14 -6 4 -11 3 -11 -3 0 -6
-21 -20 -47 -32 -25 -12 -65 -41 -88 -66 -38 -40 -45 -44 -64 -34 -28 15 -39
8 -47 -34 -3 -18 -17 -43 -30 -56 -13 -12 -24 -29 -24 -37 0 -23 -32 -82 -41
-76 -5 3 -12 -1 -15 -10 -3 -8 -12 -12 -20 -9 -19 7 -18 -21 1 -37 20 -16 19
-46 -1 -54 -11 -4 -14 -12 -8 -24 4 -9 8 -38 8 -65 l1 -47 -25 29 c-14 16 -30
37 -37 48 -10 16 -11 16 -6 -5 3 -12 0 -29 -7 -37 -9 -10 -9 -15 -1 -15 6 0
11 6 11 13 1 6 10 1 21 -12 15 -19 17 -26 7 -32 -10 -7 -9 -9 4 -9 9 0 25 -13
35 -30 9 -16 23 -30 30 -30 7 0 13 -7 13 -15 0 -7 8 -19 18 -24 9 -6 13 -11 7
-11 -5 0 -5 -4 2 -8 6 -4 13 -25 15 -47 5 -44 26 -95 40 -95 5 0 7 -4 4 -9 -3
-5 1 -14 9 -21 8 -7 15 -18 15 -24 0 -14 48 -66 61 -66 6 0 7 5 3 11 -3 6 5 3
20 -6 14 -9 23 -21 20 -26 -3 -5 0 -8 8 -7 7 2 12 -5 11 -16 -1 -12 2 -15 9
-8 15 15 38 3 38 -19 0 -10 7 -19 15 -19 9 0 25 -9 37 -20 22 -20 39 -26 37
-12 -4 21 3 23 20 8 23 -21 99 -26 231 -13 143 13 258 48 351 107 52 34 79 38
79 13 0 -10 8 -1 18 21 9 21 20 37 23 35 9 -6 71 79 103 141 15 30 38 66 50
80 40 47 61 100 34 84 -7 -4 -5 2 5 12 14 15 19 16 26 5 6 -9 11 -10 15 -2 4
6 -4 36 -18 67 -29 64 -35 102 -11 70 8 -10 12 -23 9 -28 -3 -4 4 -20 15 -34
23 -30 29 -19 7 12 -8 10 -11 23 -6 29 4 6 -3 32 -16 59 -13 28 -24 59 -25 70
0 21 -1 21 -10 1 -8 -17 -8 -15 -4 8 4 19 2 26 -7 25 -8 -2 -14 9 -16 25 -2
17 -8 25 -14 21 -7 -4 -8 -2 -4 5 11 17 37 -6 29 -26 -4 -10 -2 -14 5 -10 6 5
21 -15 37 -48 25 -51 42 -74 29 -40 -3 8 8 2 24 -13 16 -15 28 -29 26 -31 -2
-2 -13 4 -24 14 -18 16 -20 16 -20 2 0 -10 5 -17 10 -17 6 0 10 -5 10 -11 0
-5 -6 -7 -12 -3 -7 4 -10 3 -5 -1 10 -12 47 -17 66 -10 14 5 14 7 1 15 -13 8
-12 10 3 10 22 0 22 11 -1 36 -10 10 -21 27 -25 37 -4 10 -11 16 -16 12 -5 -3
-11 5 -13 17 -2 13 -9 23 -17 23 -8 0 -16 6 -18 13 -3 6 1 12 8 12 8 0 3 7
-10 16 -17 12 -22 24 -19 45 4 26 1 29 -21 29 -28 1 -69 26 -58 36 3 4 13 -1
22 -10 18 -18 45 -22 45 -6 0 5 -3 9 -7 9 -19 -3 -33 2 -33 12 0 5 6 7 13 4 6
-4 4 0 -6 9 -11 8 -25 12 -33 9 -9 -3 -14 1 -14 12 0 10 5 13 12 9 7 -4 8 -3
4 4 -4 7 -21 12 -37 12 -19 0 -28 4 -24 11 4 6 13 8 21 5 9 -4 18 4 24 19 6
17 17 25 32 25 13 0 29 9 36 21 11 17 11 20 0 14 -7 -3 -1 3 15 15 46 37 36
49 -35 44 -35 -3 -69 -7 -75 -9 -7 -2 -17 4 -22 13 -10 16 -10 16 -11 0 0 -10
-4 -18 -10 -18 -5 0 -10 7 -10 16 0 12 -6 15 -22 10 -13 -3 -54 2 -93 12 l-70
17 75 6 c66 5 69 6 22 7 -33 1 -51 6 -47 12 13 21 105 7 105 -16 0 -15 27 -18
54 -8 25 10 19 27 -7 20 -17 -4 -24 -1 -24 9 0 7 3 13 6 12 3 0 22 7 41 17 35
17 35 17 11 -2 -17 -14 -20 -21 -11 -27 8 -5 30 12 63 48 29 30 62 58 75 62
24 7 25 10 13 40 -7 17 -8 17 -15 -8 -5 -23 -10 -26 -25 -18 -10 6 -20 8 -23
6 -3 -3 -5 1 -5 8 0 7 7 19 16 27 13 13 14 12 7 -5 -9 -24 3 -13 19 17 6 13
17 22 23 21 7 -2 12 3 13 10 2 57 7 88 16 99 5 7 8 31 5 53 -9 93 3 135 52
176 16 13 17 23 11 67 l-7 52 -652 0 c-640 0 -651 0 -664 -20z m1150 -112 c-5
-5 -13 -4 -20 5 -9 10 -7 19 6 35 l17 21 3 -25 c2 -15 -1 -31 -6 -36z m93 12
c3 -5 1 -10 -4 -10 -6 0 -11 5 -11 10 0 6 2 10 4 10 3 0 8 -4 11 -10z m-900
-61 c4 -6 5 -12 2 -15 -7 -7 -37 7 -37 17 0 13 27 11 35 -2z m725 -17 c0 -4
-5 -13 -12 -20 -9 -9 -7 -17 10 -32 24 -23 23 -33 -5 -123 -8 -27 -21 -51 -29
-54 -8 -3 -12 -8 -9 -13 5 -8 -17 -20 -78 -44 -27 -11 -44 -13 -57 -6 -14 7
-18 6 -16 -5 1 -8 5 -17 9 -21 3 -3 -1 -13 -10 -22 -12 -12 -18 -13 -32 -3 -9
6 -23 14 -32 17 -10 3 -16 15 -15 29 0 13 4 21 7 19 4 -2 14 12 23 30 18 38
66 83 108 100 26 11 26 12 8 24 -11 7 -20 8 -20 3 0 -5 -29 -31 -65 -57 -36
-26 -67 -55 -70 -65 -7 -21 -32 -32 -41 -18 -8 13 34 59 53 59 8 0 12 4 8 9
-3 5 8 18 24 27 17 10 28 21 25 26 -3 4 3 5 12 1 13 -5 15 -3 9 7 -6 10 -3 12
13 8 15 -4 22 0 26 14 3 14 11 19 24 16 11 -3 27 -1 36 4 12 7 18 4 25 -14 l8
-22 12 22 c6 12 11 28 10 35 -1 6 1 20 4 30 4 9 9 24 12 32 5 16 25 21 25 7z
m-930 -47 c-7 -8 -17 -12 -23 -8 -6 4 -3 9 9 14 27 11 28 11 14 -6z m120 5 c0
-5 -4 -10 -9 -10 -6 0 -13 5 -16 10 -3 6 1 10 9 10 9 0 16 -4 16 -10z m720
-10 c0 -5 -4 -10 -10 -10 -5 0 -10 5 -10 10 0 6 5 10 10 10 6 0 10 -4 10 -10z
m-435 -14 c14 -8 23 -16 18 -19 -12 -7 -105 11 -117 23 -16 16 67 12 99 -4z
m-515 -26 c-8 -5 -17 -7 -19 -4 -3 3 1 9 9 14 8 5 17 7 19 4 3 -3 -1 -9 -9
-14z m325 10 c-3 -5 -14 -10 -23 -9 -14 0 -13 2 3 9 27 11 27 11 20 0z m181
-37 c-7 -7 -106 9 -101 17 2 4 27 3 55 -3 28 -5 49 -12 46 -14z m634 -24 c0
-12 -37 -12 -44 0 -7 11 14 20 32 13 6 -2 12 -8 12 -13z m-378 -30 c-10 -11
-20 -15 -25 -10 -13 13 -2 26 22 28 18 2 19 0 3 -18z m418 -29 c0 -5 -2 -10
-4 -10 -3 0 -8 5 -11 10 -3 6 -1 10 4 10 6 0 11 -4 11 -10z m0 -50 c0 -5 -4
-10 -10 -10 -5 0 -10 5 -10 10 0 6 5 10 10 10 6 0 10 -4 10 -10z m-146 -75
c-6 -16 -24 -21 -24 -7 0 11 11 22 21 22 5 0 6 -7 3 -15z m-150 -40 c6 -16 -3
-19 -28 -9 -9 3 -13 10 -10 15 8 14 31 11 38 -6z m-119 -115 c16 -7 13 -9 -17
-9 -21 -1 -38 4 -38 9 0 12 27 12 55 0z m333 -345 c-3 -3 -9 2 -12 12 -6 14
-5 15 5 6 7 -7 10 -15 7 -18z m-1137 -58 c-13 -13 -26 -3 -16 12 3 6 11 8 17
5 6 -4 6 -10 -1 -17z m-41 -56 c0 -6 -4 -13 -10 -16 -5 -3 -10 1 -10 9 0 9 5
16 10 16 6 0 10 -4 10 -9z m120 -566 c7 -8 8 -15 2 -15 -5 0 -15 7 -22 15 -7
8 -8 15 -2 15 5 0 15 -7 22 -15z"/>
<path d="M2570 3774 c0 -8 5 -12 10 -9 6 4 8 11 5 16 -9 14 -15 11 -15 -7z"/>
<path d="M2305 3619 c-4 -6 -5 -12 -2 -15 2 -3 7 2 10 11 7 17 1 20 -8 4z"/>
<path d="M3024 4004 c-9 -51 3 -204 26 -315 12 -56 20 -135 20 -194 0 -89 4
-113 35 -205 20 -57 40 -109 45 -115 14 -16 86 -251 99 -325 7 -35 19 -85 28
-110 13 -40 82 -192 104 -230 5 -8 15 -29 24 -46 9 -17 34 -48 56 -70 39 -39
40 -39 117 -38 42 1 95 4 117 9 22 4 48 8 59 8 10 1 39 21 65 45 53 51 67 57
156 73 l65 11 0 769 0 769 -505 0 -504 0 -7 -36z m547 -400 c94 -40 149 -99
149 -160 0 -48 -81 -56 -195 -18 -135 45 -229 171 -152 205 35 15 129 2 198
-27z"/>
<path d="M1500 3950 c0 -5 6 -10 14 -10 8 0 18 5 21 10 3 6 -3 10 -14 10 -12
0 -21 -4 -21 -10z"/>
<path d="M2911 3934 c0 -11 3 -14 6 -6 3 7 2 16 -1 19 -3 4 -6 -2 -5 -13z"/>
<path d="M1295 3870 c3 -5 8 -10 11 -10 2 0 4 5 4 10 0 6 -5 10 -11 10 -5 0
-7 -4 -4 -10z"/>
<path d="M1443 3700 c-4 -16 -8 -18 -19 -9 -26 21 -24 3 1 -19 14 -12 25 -17
25 -12 0 6 6 9 12 8 19 -4 22 38 3 46 -12 4 -19 0 -22 -14z"/>
<path d="M2195 3710 c-3 -5 -1 -10 4 -10 6 0 11 5 11 10 0 6 -2 10 -4 10 -3 0
-8 -4 -11 -10z"/>
<path d="M1933 3679 c-18 -12 -33 -25 -33 -30 0 -6 16 2 35 17 30 23 41 34 33
34 -2 0 -18 -10 -35 -21z"/>
<path d="M1980 3673 c-31 -6 -59 -40 -60 -72 0 -24 0 -24 -15 -5 -17 22 -20
12 -4 -17 5 -11 14 -17 20 -14 5 4 9 -5 9 -19 0 -16 6 -26 15 -26 9 0 15 9 15
25 0 14 6 28 14 31 8 3 22 26 31 50 12 31 22 44 31 40 8 -3 14 -1 14 4 0 10
-24 11 -70 3z"/>
<path d="M2156 3655 c4 -8 10 -12 15 -9 14 8 10 24 -6 24 -9 0 -12 -6 -9 -15z"/>
<path d="M1720 3597 c0 -10 -16 -13 -59 -11 -47 1 -58 -2 -54 -12 3 -8 13 -14
22 -14 10 0 21 -3 25 -7 9 -10 46 -11 46 -2 0 5 14 6 30 3 32 -7 38 3 20 37
-12 22 -30 25 -30 6z m-50 -27 c18 -12 2 -12 -25 0 -13 6 -15 9 -5 9 8 0 22
-4 30 -9z"/>
<path d="M1795 3600 c3 -5 10 -10 16 -10 5 0 9 5 9 10 0 6 -7 10 -16 10 -8 0
-12 -4 -9 -10z"/>
<path d="M1810 3570 c20 -13 43 -13 35 0 -3 6 -16 10 -28 10 -18 0 -19 -2 -7
-10z"/>
<path d="M1439 3540 c-10 -16 -13 -32 -8 -45 4 -11 8 -14 8 -7 1 6 6 12 12 12
6 0 18 8 27 17 16 16 16 16 0 10 -12 -4 -18 0 -20 16 -3 21 -3 21 -19 -3z"/>
<path d="M2050 3550 c0 -5 5 -10 11 -10 5 0 7 5 4 10 -3 6 -8 10 -11 10 -2 0
-4 -4 -4 -10z"/>
<path d="M2080 3549 c0 -5 5 -7 10 -4 6 3 10 8 10 11 0 2 -4 4 -10 4 -5 0 -10
-5 -10 -11z"/>
<path d="M2117 3549 c7 -7 15 -10 18 -7 3 3 -2 9 -12 12 -14 6 -15 5 -6 -5z"/>
<path d="M2029 3513 c-13 -16 -12 -17 4 -4 9 7 17 15 17 17 0 8 -8 3 -21 -13z"/>
<path d="M2060 3480 c0 -5 5 -10 11 -10 5 0 7 5 4 10 -3 6 -8 10 -11 10 -2 0
-4 -4 -4 -10z"/>
<path d="M2263 3473 c1 -15 5 -19 13 -13 6 6 14 7 17 3 4 -3 7 -1 7 6 0 7 -6
11 -14 8 -8 -3 -17 -1 -19 6 -3 7 -4 2 -4 -10z"/>
<path d="M2120 3454 c0 -14 3 -14 15 -4 8 7 15 14 15 16 0 2 -7 4 -15 4 -8 0
-15 -7 -15 -16z"/>
<path d="M2241 3454 c0 -11 3 -14 6 -6 3 7 2 16 -1 19 -3 4 -6 -2 -5 -13z"/>
<path d="M1945 3450 c-3 -5 -1 -10 4 -10 6 0 11 5 11 10 0 6 -2 10 -4 10 -3 0
-8 -4 -11 -10z"/>
<path d="M2045 3430 c3 -5 11 -10 16 -10 6 0 7 5 4 10 -3 6 -11 10 -16 10 -6
0 -7 -4 -4 -10z"/>
<path d="M2741 3384 c0 -11 3 -14 6 -6 3 7 2 16 -1 19 -3 4 -6 -2 -5 -13z"/>
<path d="M2664 3372 c-18 -6 -19 -9 -9 -19 10 -9 17 -8 31 8 18 20 14 22 -22
11z"/>
<path d="M1230 3350 c0 -11 2 -20 5 -20 2 0 9 9 15 20 9 16 8 20 -5 20 -8 0
-15 -9 -15 -20z"/>
<path d="M1560 3269 c0 -5 5 -7 10 -4 6 3 10 8 10 11 0 2 -4 4 -10 4 -5 0 -10
-5 -10 -11z"/>
<path d="M1645 3251 c-3 -5 -1 -12 5 -16 5 -3 10 1 10 9 0 18 -6 21 -15 7z"/>
<path d="M1497 3183 c-11 -10 -8 -43 3 -43 6 0 10 11 10 25 0 26 -2 29 -13 18z"/>
<path d="M1090 3144 c0 -8 5 -12 10 -9 6 3 10 10 10 16 0 5 -4 9 -10 9 -5 0
-10 -7 -10 -16z"/>
<path d="M935 3140 c-3 -5 -2 -10 4 -10 5 0 13 5 16 10 3 6 2 10 -4 10 -5 0
-13 -4 -16 -10z"/>
<path d="M2740 3115 c-8 -9 -8 -15 -2 -15 12 0 26 19 19 26 -2 2 -10 -2 -17
-11z"/>
<path d="M670 3051 c0 -5 5 -13 10 -16 6 -3 10 -2 10 4 0 5 -4 13 -10 16 -5 3
-10 2 -10 -4z"/>
<path d="M757 3050 c-25 -5 -49 -19 -71 -43 -19 -21 -41 -37 -51 -37 -9 0 -19
-9 -22 -20 -3 -10 -14 -22 -25 -26 -11 -3 -17 -8 -14 -12 3 -3 -4 -10 -17 -16
-29 -15 -53 -64 -38 -79 16 -16 14 -27 -4 -21 -8 4 -15 2 -15 -4 0 -6 6 -12
13 -15 7 -2 0 -10 -15 -17 -16 -7 -28 -18 -28 -23 0 -5 8 -3 17 4 14 12 16 12
8 -1 -5 -8 -8 -30 -7 -50 2 -28 0 -32 -9 -17 -5 9 -7 22 -4 27 3 6 1 10 -4 10
-6 0 -11 -12 -11 -26 0 -14 -5 -34 -10 -45 -13 -23 -7 -24 24 -4 23 15 24 15
28 -15 3 -16 1 -30 -4 -30 -5 0 -18 -9 -30 -20 l-22 -20 27 0 c17 0 27 5 27
15 0 8 7 15 15 15 8 0 15 -2 15 -5 0 -9 -55 -62 -75 -73 -11 -6 -31 -31 -44
-56 -12 -26 -35 -53 -50 -60 -15 -8 -34 -22 -42 -32 -12 -15 -12 -16 8 -10 12
4 24 2 28 -4 9 -14 -61 -42 -88 -35 -17 5 -19 4 -7 -4 11 -8 -4 -11 -60 -12
-41 -1 -83 -1 -93 -1 -11 1 -17 -3 -15 -10 6 -16 58 -23 58 -8 0 6 4 9 9 6 13
-8 192 11 312 34 78 15 115 27 145 49 23 16 51 32 63 36 12 3 19 10 16 15 -3
4 9 13 25 19 17 5 30 15 30 20 0 6 3 10 8 9 12 -4 62 33 57 42 -3 5 3 6 13 3
12 -3 23 4 32 22 11 20 19 25 35 20 55 -16 93 -17 118 -1 20 13 26 14 30 4 4
-9 11 -7 24 9 10 11 34 24 53 27 l35 6 -35 -14 -35 -14 31 -1 c18 -1 45 6 60
14 l29 15 -25 2 c-14 0 0 4 30 7 30 4 61 2 68 -3 7 -5 12 -5 12 0 0 5 11 -4
23 -20 28 -35 63 -46 47 -15 -6 10 -15 19 -20 19 -6 0 -10 5 -10 11 0 5 6 7
13 3 6 -4 5 1 -4 12 -9 10 -19 26 -24 34 -10 19 44 -40 68 -75 21 -29 35 -27
18 2 -6 10 -11 14 -11 9 0 -5 -13 10 -29 35 -17 24 -47 61 -69 82 -49 48 -194
133 -307 181 -91 39 -114 58 -103 87 8 21 4 34 -9 31 -19 -4 -4 27 18 39 11 5
17 14 14 18 -6 11 -95 11 -148 1z m49 -25 c16 -12 16 -14 3 -15 -9 0 -22 7
-29 15 -16 19 0 19 26 0z m29 -65 c-3 -5 -12 -10 -18 -10 -7 0 -6 4 3 10 19
12 23 12 15 0z m-27 -59 c18 -11 11 -46 -8 -46 -9 0 -16 11 -18 28 -3 28 3 33
26 18z m-32 -105 c7 -19 -13 -56 -31 -56 -20 0 -28 17 -21 46 7 27 43 34 52
10z m-68 -148 c18 -18 15 -23 -13 -26 -24 -2 -34 16 -18 31 9 10 17 9 31 -5z
m280 -94 c-9 -9 -21 -13 -27 -9 -16 10 -3 25 22 25 20 0 20 -1 5 -16z m-194
-66 c-3 -4 -12 -8 -20 -8 -8 0 -13 4 -10 8 3 5 12 9 20 9 8 0 13 -4 10 -9z
m-347 -20 c-3 -8 -6 -5 -6 6 -1 11 2 17 5 13 3 -3 4 -12 1 -19z m3 -42 c0 -3
-4 -8 -10 -11 -5 -3 -10 -1 -10 4 0 6 5 11 10 11 6 0 10 -2 10 -4z"/>
<path d="M1395 3050 c3 -5 10 -10 16 -10 5 0 9 5 9 10 0 6 -7 10 -16 10 -8 0
-12 -4 -9 -10z"/>
<path d="M910 3014 c0 -8 5 -12 10 -9 6 3 10 10 10 16 0 5 -4 9 -10 9 -5 0
-10 -7 -10 -16z"/>
<path d="M2985 3020 c3 -5 8 -10 11 -10 2 0 4 5 4 10 0 6 -5 10 -11 10 -5 0
-7 -4 -4 -10z"/>
<path d="M1430 3006 c-6 -9 -10 -21 -8 -28 3 -8 9 -4 17 10 15 28 9 39 -9 18z"/>
<path d="M1307 2949 c7 -7 15 -10 18 -7 3 3 -2 9 -12 12 -14 6 -15 5 -6 -5z"/>
<path d="M1318 2861 c12 -11 22 -24 22 -29 0 -5 7 -12 15 -16 21 -8 19 7 -6
38 -11 14 -28 26 -37 26 -14 -1 -13 -4 6 -19z"/>
<path d="M1230 2850 c0 -5 5 -10 10 -10 6 0 10 5 10 10 0 6 -4 10 -10 10 -5 0
-10 -4 -10 -10z"/>
<path d="M1234 2778 c10 -6 22 -6 26 -2 5 5 -3 10 -18 11 -22 1 -24 0 -8 -9z"/>
<path d="M1325 2521 c-3 -5 -1 -12 5 -16 5 -3 10 1 10 9 0 18 -6 21 -15 7z"/>
<path d="M2685 2410 c-3 -5 -1 -10 4 -10 6 0 11 5 11 10 0 6 -2 10 -4 10 -3 0
-8 -4 -11 -10z"/>
<path d="M3215 2351 c-3 -5 -1 -12 5 -16 5 -3 10 1 10 9 0 18 -6 21 -15 7z"/>
<path d="M66 2275 c4 -8 8 -15 10 -15 2 0 4 7 4 15 0 8 -4 15 -10 15 -5 0 -7
-7 -4 -15z"/>
<path d="M40 2270 c0 -5 5 -10 11 -10 5 0 7 5 4 10 -3 6 -8 10 -11 10 -2 0 -4
-4 -4 -10z"/>
<path d="M6 2251 c-4 -5 -2 -12 3 -15 5 -4 12 -2 15 3 4 5 2 12 -3 15 -5 4
-12 2 -15 -3z"/>
<path d="M2435 2249 c-4 -6 -5 -12 -2 -15 2 -3 7 2 10 11 7 17 1 20 -8 4z"/>
<path d="M938 2225 c-4 -20 -3 -23 8 -14 16 13 19 39 5 39 -5 0 -11 -11 -13
-25z"/>
<path d="M1016 2231 c-3 -5 1 -11 9 -15 8 -3 15 -1 15 4 0 13 -18 22 -24 11z"/>
<path d="M4017 2213 c-12 -12 -7 -22 8 -17 8 4 15 10 15 15 0 11 -14 12 -23 2z"/>
<path d="M675 2183 l-17 -28 23 22 c12 12 20 25 17 28 -3 3 -13 -7 -23 -22z"/>
<path d="M990 2195 c-8 -9 -8 -15 -2 -15 12 0 26 19 19 26 -2 2 -10 -2 -17
-11z"/>
<path d="M891 2188 c-1 -9 -4 -18 -8 -21 -5 -2 -1 -2 7 0 8 2 11 0 6 -4 -8 -9
-37 -13 -106 -14 -25 -1 -51 -6 -59 -13 -12 -9 -13 -8 -8 7 8 21 3 21 -26 2
-49 -32 -123 -46 -252 -50 -78 -2 -167 -12 -223 -24 -54 -11 -115 -18 -144
-15 -29 2 -57 -1 -65 -7 -10 -9 -13 -89 -13 -410 0 -355 2 -399 16 -399 8 0
12 -5 9 -10 -4 -6 -11 -8 -16 -5 -5 4 -9 -16 -9 -44 0 -27 4 -52 8 -55 24 -14
174 -40 222 -38 207 9 209 9 375 -38 91 -26 141 -26 155 -1 23 44 6 53 -74 42
-43 -6 -61 -4 -78 7 -17 13 -20 13 -13 1 8 -12 6 -12 -8 0 -20 16 -20 16 -4
33 7 7 18 24 25 38 9 19 11 20 9 5 -3 -24 41 -47 98 -52 22 -2 59 -13 83 -25
55 -26 63 -18 19 18 -19 16 -39 39 -46 51 -12 23 -12 75 0 67 4 -2 10 2 12 8
3 7 6 -7 6 -33 1 -38 6 -50 36 -79 19 -19 35 -30 35 -26 0 5 12 -3 26 -18 15
-14 32 -26 38 -26 6 0 -4 14 -22 31 -18 17 -29 35 -26 41 5 7 1 9 -9 5 -9 -3
-18 0 -21 9 -9 22 32 17 46 -6 7 -11 19 -20 26 -20 7 0 10 5 7 10 -4 6 6 10
22 11 27 1 27 1 -7 13 -19 6 -40 14 -47 19 -6 4 -23 3 -37 -3 -14 -5 -27 -6
-29 -2 -2 4 -4 34 -3 67 1 42 5 59 14 58 6 -2 12 0 12 5 0 4 4 24 9 44 5 22 5
36 0 32 -5 -3 -9 2 -9 10 0 9 4 16 8 16 5 0 14 12 20 26 7 14 17 22 22 19 6
-3 7 1 4 9 -3 9 -3 16 1 16 15 0 34 -35 35 -62 0 -15 5 -30 11 -34 6 -3 9 -15
6 -25 -3 -11 -1 -17 4 -13 5 3 9 25 9 50 0 47 23 71 41 43 8 -13 11 -6 8 17 0
4 5 10 12 15 11 6 10 9 -4 15 -9 3 -17 10 -17 16 0 5 4 7 9 4 5 -4 14 6 19 21
6 16 11 22 11 14 1 -11 4 -11 16 -1 13 11 14 10 8 -6 -5 -16 -4 -17 8 -7 8 6
36 13 64 14 43 3 50 1 53 -16 2 -11 11 -26 20 -32 9 -7 13 -13 9 -13 -10 0 25
-32 51 -47 18 -11 23 -10 31 5 7 12 9 4 8 -34 -1 -55 8 -71 55 -91 27 -12 27
-12 34 33 3 24 9 46 13 49 11 6 -5 -108 -18 -133 -6 -11 -16 -33 -21 -49 -9
-25 -9 -26 4 -10 11 14 15 15 20 5 3 -7 5 -4 2 8 -2 11 5 36 16 55 10 19 16
25 14 14 -20 -79 -25 -126 -24 -240 1 -228 -2 -316 -9 -312 -5 3 -9 -9 -10
-26 -1 -27 0 -29 8 -12 8 18 8 17 6 -5 -1 -14 -7 -24 -13 -23 -5 1 -11 -14
-11 -33 -1 -19 3 -31 8 -28 5 3 9 -10 8 -28 0 -28 -2 -30 -10 -13 -8 17 -9 16
-4 -5 3 -14 9 -42 12 -62 3 -24 10 -35 17 -31 6 4 4 -2 -4 -12 -9 -11 -10 -16
-2 -11 6 4 12 2 12 -3 0 -6 -3 -11 -7 -11 -5 0 -8 -11 -8 -23 0 -18 5 -23 18
-19 12 3 17 -2 17 -14 0 -30 16 -46 44 -46 26 0 26 -1 10 -25 -8 -14 -13 -35
-10 -47 5 -20 5 -20 -9 -2 -14 18 -15 17 -15 -22 0 -35 3 -41 18 -36 16 5 16
5 0 -9 -22 -17 -23 -37 -3 -37 20 0 19 -17 -2 -29 -10 -6 -14 -11 -9 -11 5 0
3 -7 -4 -15 -8 -9 -9 -15 -2 -15 6 0 14 4 17 10 10 15 54 7 60 -11 3 -9 17
-29 30 -43 l24 -26 646 0 c491 0 644 3 639 12 -5 7 -2 9 9 5 17 -6 20 0 32 63
4 19 12 41 18 48 15 19 21 99 8 107 -7 4 -4 20 9 46 11 21 17 39 13 39 -5 0
-14 -14 -22 -31 -7 -16 -15 -28 -17 -26 -6 5 22 66 42 95 15 20 15 22 1 16
-16 -6 -18 10 -4 33 5 8 0 9 -15 5 -23 -5 -23 -5 -3 17 16 19 17 24 5 31 -8 6
-20 10 -27 10 -9 0 -10 7 -4 23 5 12 15 21 23 19 11 -1 14 5 13 23 -2 14 1 25
6 25 5 0 9 -5 9 -12 0 -9 3 -9 12 0 10 10 10 14 0 21 -9 5 -1 15 25 32 21 13
38 31 38 39 0 8 7 19 15 25 15 10 21 11 43 14 8 1 8 4 -3 11 -8 5 -12 11 -10
13 3 2 18 13 33 25 41 31 99 110 91 124 -5 7 -2 9 8 5 12 -4 14 -1 11 13 -3
10 0 21 7 25 7 5 0 17 -22 37 -18 17 -25 28 -16 25 10 -3 20 -1 24 4 3 6 15 8
26 5 22 -5 81 32 72 46 -3 4 19 8 49 8 39 0 61 6 80 20 17 13 40 20 70 20 53
0 76 20 25 21 -27 0 -30 2 -13 9 25 11 1 13 -34 3 -23 -6 -23 -7 -5 -14 15 -6
12 -8 -14 -8 -21 -1 -31 3 -27 9 7 12 -30 6 -76 -11 -14 -6 -38 -8 -52 -5 -15
2 -27 1 -27 -4 0 -5 -17 -12 -37 -15 -21 -4 -46 -9 -57 -12 -12 -3 -16 -1 -12
6 15 23 -45 11 -66 -15 -17 -19 -29 -24 -47 -19 -16 4 -31 0 -47 -16 -12 -11
-27 -18 -33 -15 -6 4 -24 0 -40 -9 -22 -11 -45 -13 -80 -9 -34 4 -51 2 -56 -7
-6 -9 -2 -11 13 -7 45 12 32 -13 -18 -35 -28 -13 -48 -26 -44 -30 4 -4 1 -7
-8 -7 -8 0 -29 -13 -46 -30 -18 -16 -39 -30 -47 -30 -9 0 -13 -5 -9 -11 4 -8
-1 -9 -15 -4 -28 9 -219 10 -228 2 -15 -16 -34 -7 -28 13 7 21 -9 28 -20 10
-4 -6 -11 -7 -17 -4 -7 5 -9 1 -5 -9 4 -12 1 -15 -16 -11 -12 2 -53 9 -92 16
-71 11 -130 33 -67 24 20 -3 30 -1 26 6 -4 6 -22 8 -41 5 -19 -3 -46 -1 -61 5
-15 6 -43 12 -62 15 -51 7 -75 11 -75 13 0 4 -46 9 -90 10 -67 3 -75 8 -75 45
0 40 -30 78 -99 129 -52 39 -81 45 -101 21 -7 -8 -17 -15 -23 -15 -16 0 -58
50 -51 61 7 12 -15 69 -26 69 -4 0 -10 -9 -13 -20 -3 -11 -1 -20 4 -20 5 0 9
-5 9 -11 0 -5 -4 -8 -9 -5 -5 3 -11 -1 -14 -9 -5 -12 -1 -12 21 -4 21 8 24 8
15 -2 -6 -6 -9 -18 -6 -27 4 -10 2 -13 -5 -8 -7 4 -12 1 -12 -8 0 -13 -3 -13
-17 2 -34 36 -40 55 -31 95 5 22 6 48 3 58 -4 11 1 33 9 51 9 17 16 38 16 47
0 9 18 52 40 96 39 77 50 106 30 75 -8 -13 -10 -12 -10 3 0 9 -4 17 -9 17 -16
0 -19 39 -11 128 5 51 4 91 -1 97 -5 5 -9 20 -9 33 0 19 3 22 13 13 8 -6 16
-10 18 -8 2 1 -2 -4 -10 -10 -12 -11 -12 -15 3 -31 10 -12 14 -27 10 -38 -5
-16 -4 -16 5 -4 9 12 11 10 11 -13 0 -31 15 -29 23 3 3 11 1 18 -3 15 -5 -3
-9 3 -9 12 0 10 -2 27 -4 38 -2 11 -2 24 1 30 15 25 17 108 4 113 -7 2 -12 8
-12 13 0 6 6 7 13 2 6 -4 22 -6 35 -4 15 1 22 -3 22 -13 0 -9 5 -16 10 -16 6
0 13 0 18 0 11 0 10 53 -2 69 -8 11 -8 13 0 8 8 -5 8 4 -1 30 -16 45 -51 72
-99 75 -20 2 -36 6 -36 11 0 4 -8 7 -17 7 -12 0 -14 3 -6 8 6 4 -21 6 -62 4
-52 -3 -89 1 -127 14 -29 9 -65 19 -81 20 -15 2 -35 11 -43 19 -9 8 -19 13
-24 10 -5 -3 -10 -1 -12 4 -1 5 -16 13 -32 17 -19 4 -27 3 -23 -3 5 -7 -5 -8
-28 -3 -22 5 -35 4 -38 -3 -2 -6 -27 -12 -56 -13 -45 -2 -53 0 -61 19 -6 16
-9 17 -9 5z m679 -233 c-7 -9 -15 -13 -17 -11 -7 7 7 26 19 26 6 0 6 -6 -2
-15z m-55 -105 c3 -5 1 -10 -4 -10 -6 0 -11 5 -11 10 0 6 2 10 4 10 3 0 8 -4
11 -10z m-128 -465 c-6 -17 -30 -11 -33 8 -1 10 2 14 9 10 7 -4 8 0 4 13 -7
18 -6 18 8 -1 8 -10 14 -24 12 -30z m-1 -60 c-14 -14 -16 -14 -16 -2 0 9 6 17
13 20 19 7 21 -1 3 -18z m-1306 -121 c11 -13 10 -16 -9 -21 -16 -4 -20 -10
-15 -25 4 -14 2 -18 -5 -14 -10 6 -12 51 -4 69 6 11 20 8 33 -9z m95 -2 c17
-12 16 -32 -1 -39 -20 -7 -38 11 -31 31 7 17 16 20 32 8z m383 -45 c3 -12 -3
-17 -20 -17 -22 -1 -22 -1 -4 -15 11 -8 16 -15 10 -15 -13 1 -50 30 -37 30 7
0 9 9 4 28 -5 15 -14 26 -20 24 -7 -1 -10 2 -6 8 9 15 69 -21 73 -43z m112 44
c0 -5 -7 -14 -15 -21 -12 -10 -15 -10 -15 2 0 8 3 18 7 21 9 10 23 9 23 -2z
m38 -23 c-4 -41 -22 -39 -24 2 -1 20 3 30 13 30 10 0 13 -9 11 -32z m-321 6
c9 -23 -13 -40 -32 -24 -8 7 -15 19 -15 26 0 19 39 18 47 -2z m-88 -8 c9 -11
8 -15 -5 -20 -8 -3 -17 -6 -18 -6 -1 0 -2 9 -2 20 0 23 9 26 25 6z m445 -11
c3 -9 0 -15 -9 -15 -9 0 -12 6 -9 15 4 8 7 15 9 15 2 0 5 -7 9 -15z m-614 -15
c6 -11 9 -20 7 -20 -2 0 -12 9 -22 20 -10 11 -13 20 -7 20 6 0 16 -9 22 -20z
m95 10 c3 -5 2 -10 -4 -10 -5 0 -13 5 -16 10 -3 6 -2 10 4 10 5 0 13 -4 16
-10z m3198 -97 c-7 -2 -19 -2 -25 0 -7 3 -2 5 12 5 14 0 19 -2 13 -5z m-9 -25
c-3 -4 -16 -7 -29 -6 -31 3 -22 16 9 14 13 0 22 -4 20 -8z m-1950 -153 c-4 -8
-8 -15 -10 -15 -2 0 -4 7 -4 15 0 8 4 15 10 15 5 0 7 -7 4 -15z m1243 -101
c-3 -3 -12 -4 -19 -1 -8 3 -5 6 6 6 11 1 17 -2 13 -5z m-347 -84 c0 -5 -2 -10
-4 -10 -3 0 -8 5 -11 10 -3 6 -1 10 4 10 6 0 11 -4 11 -10z m705 0 c3 -5 -1
-10 -9 -10 -9 0 -16 5 -16 10 0 6 4 10 9 10 6 0 13 -4 16 -10z m-409 -23 c4
-4 -7 -5 -25 -3 -41 5 -51 14 -12 12 16 -1 33 -5 37 -9z m79 -37 c3 -5 -1 -10
-9 -10 -9 0 -16 5 -16 10 0 6 4 10 9 10 6 0 13 -4 16 -10z m-120 -20 c3 -5 1
-10 -4 -10 -6 0 -11 5 -11 10 0 6 2 10 4 10 3 0 8 -4 11 -10z m100 -20 c11
-10 35 -25 53 -34 27 -14 31 -20 22 -36 -5 -10 -19 -22 -31 -25 -16 -5 -18
-10 -9 -20 10 -12 15 -11 32 4 11 11 29 22 41 25 22 5 22 5 2 -9 -11 -8 -24
-18 -30 -23 -27 -22 -36 -22 -55 0 -11 13 -19 28 -20 35 0 7 -10 18 -22 24
-13 7 -26 18 -31 25 -4 7 -14 11 -21 8 -20 -8 -29 12 -16 37 9 16 17 19 38 14
15 -4 36 -15 47 -25z m300 20 c-3 -5 -14 -10 -23 -9 -14 0 -13 2 3 9 27 11 27
11 20 0z m-45 -4 c0 -3 -25 -23 -55 -44 -30 -22 -52 -41 -50 -44 3 -3 -8 -5
-25 -5 -32 0 -40 14 -15 23 8 4 13 10 10 14 -3 5 4 6 15 3 15 -4 20 0 20 16 0
16 6 21 28 22 15 0 36 4 47 9 25 11 25 11 25 6z m-355 -106 c3 -6 -1 -7 -9 -4
-18 7 -21 14 -7 14 6 0 13 -4 16 -10z m225 -324 c-8 -8 -13 -7 -20 4 -5 8 -7
17 -4 21 2 4 -3 9 -11 13 -8 3 -15 13 -15 22 0 11 9 7 30 -16 22 -24 28 -36
20 -44z m-1335 24 c-3 -5 -11 -10 -16 -10 -6 0 -7 5 -4 10 3 6 11 10 16 10 6
0 7 -4 4 -10z m1413 -33 c-1 -2 3 -11 10 -20 12 -13 10 -18 -7 -29 -12 -7 -21
-24 -22 -38 0 -14 -4 -34 -9 -45 -6 -14 -8 -3 -4 33 3 38 1 52 -8 52 -7 1 0 7
17 14 20 8 25 15 17 20 -7 4 -10 12 -6 17 3 6 8 8 11 5 2 -2 3 -6 1 -9z m-118
-37 c0 -5 -4 -10 -10 -10 -5 0 -10 5 -10 10 0 6 5 10 10 10 6 0 10 -4 10 -10z
m-16 -85 c-6 -16 -24 -21 -24 -7 0 11 11 22 21 22 5 0 6 -7 3 -15z"/>
<path d="M3875 2145 c-3 -8 -7 -23 -11 -32 -3 -10 -2 -14 2 -10 4 4 15 0 25
-9 16 -14 18 -13 24 15 3 17 4 35 0 41 -9 15 -35 12 -40 -5z"/>
<path d="M3160 2142 c0 -21 30 -201 41 -250 9 -39 16 -51 27 -47 11 4 13 -2
10 -25 -3 -17 -1 -33 3 -36 4 -2 6 -28 4 -57 l-5 -52 14 45 14 45 -4 -65 -3
-65 9 55 c6 30 8 71 5 90 -3 27 -2 31 5 15 7 -14 8 7 5 65 -4 100 -6 110 -17
110 -4 0 -8 10 -8 23 0 12 -7 32 -15 43 -8 12 -11 24 -8 28 4 3 -4 16 -16 27
-19 18 -25 19 -32 8 -6 -10 -9 -6 -9 13 0 15 -4 30 -10 33 -5 3 -10 2 -10 -3z"/>
<path d="M1960 2109 c-25 -5 -73 -12 -107 -15 -35 -4 -63 -10 -63 -14 0 -3 25
-7 55 -8 30 -1 55 3 55 8 0 6 15 10 33 10 17 1 46 7 62 15 34 15 28 16 -35 4z"/>
<path d="M1610 2100 c36 -4 90 -10 120 -13 l55 -7 -60 15 c-33 8 -87 14 -120
13 l-60 -1 65 -7z"/>
<path d="M2445 2065 c-39 -13 -90 -26 -115 -29 -25 -3 -83 -19 -130 -36 -47
-17 -99 -35 -115 -39 -17 -4 -39 -13 -50 -18 -11 -6 -47 -23 -79 -39 -33 -15
-72 -40 -88 -54 -24 -22 -28 -34 -29 -83 -1 -34 -7 -61 -15 -68 -8 -6 -11 -15
-8 -20 7 -12 -17 -132 -28 -140 -5 -3 -12 -20 -17 -37 -8 -26 -7 -32 6 -32 13
0 13 -3 3 -15 -7 -8 -8 -15 -3 -15 9 0 55 -64 97 -134 10 -17 35 -50 56 -72
21 -23 50 -60 64 -82 31 -50 111 -112 143 -112 13 0 33 -5 44 -10 47 -25 269
-6 410 35 46 13 130 52 139 64 3 4 26 19 53 34 43 26 52 37 48 61 -1 5 5 6 13
3 9 -4 15 -3 15 1 -3 20 4 33 41 73 22 24 40 50 40 58 0 7 9 28 20 46 36 58
63 164 57 225 -7 82 -44 178 -90 240 -23 30 -41 58 -40 61 1 4 -7 15 -17 24
-11 10 -20 26 -20 35 0 27 -20 38 -80 46 -30 4 -67 13 -82 20 -15 8 -43 14
-62 14 -19 0 -38 5 -41 10 -10 16 -65 10 -140 -15z m-654 -578 c-10 -9 -11 -8
-5 6 3 10 9 15 12 12 3 -3 0 -11 -7 -18z"/>
<path d="M3950 2002 c-8 -3 -37 -23 -64 -44 -27 -21 -55 -37 -62 -34 -8 3 -26
-10 -41 -29 -16 -19 -32 -35 -36 -35 -5 0 -29 -14 -53 -31 -39 -27 -54 -31
-109 -30 -69 0 -100 13 -110 46 -5 18 -7 16 -24 -14 -12 -24 -20 -30 -24 -20
-3 9 -6 6 -6 -8 -1 -23 -21 -43 -21 -21 -1 7 -7 2 -15 -12 l-14 -25 -2 30 c-1
21 -4 15 -9 -20 -4 -27 -5 -63 -2 -79 4 -21 2 -28 -8 -24 -8 2 -14 17 -15 34
-3 45 -17 94 -27 94 -5 0 -8 -24 -6 -52 2 -42 0 -52 -11 -50 -12 3 -12 0 -1
-12 9 -12 9 -16 1 -16 -18 0 -9 -51 12 -74 16 -18 22 -36 13 -36 -12 0 -55 28
-50 33 4 3 -1 13 -10 22 -19 19 -22 13 -28 -47 -3 -28 0 -38 10 -38 11 0 13
-11 10 -50 -3 -29 -1 -53 5 -57 6 -3 7 -2 4 3 -3 6 -2 16 4 24 7 13 9 12 9 -2
0 -12 8 -18 24 -18 20 0 23 4 20 23 -5 22 -5 22 5 0 16 -36 4 -60 -29 -55 -15
2 -31 -1 -35 -8 -6 -9 3 -11 33 -7 28 3 42 0 46 -9 6 -16 -9 -71 -24 -89 -7
-8 -9 -24 -5 -36 6 -19 4 -20 -22 -15 -18 4 -41 0 -67 -13 -21 -11 -43 -18
-47 -15 -5 3 -9 0 -9 -6 0 -17 26 -23 48 -11 11 6 37 13 57 17 30 4 40 1 58
-19 12 -13 29 -27 37 -30 13 -5 13 -6 0 -6 -31 -2 -90 20 -99 37 -6 9 -11 12
-11 7 0 -16 -75 -22 -122 -10 -19 5 -28 3 -28 -4 0 -7 4 -10 9 -7 5 4 7 -3 4
-14 -7 -27 5 -25 17 3 8 21 9 21 9 -6 1 -21 -5 -30 -19 -34 -11 -3 -20 -10
-20 -15 0 -13 49 -1 70 16 23 19 67 35 75 28 15 -15 293 -20 449 -8 69 5 96 4
91 -3 -3 -6 -17 -11 -30 -11 -30 0 -41 -16 -15 -23 11 -3 18 -1 15 3 -3 5 7
10 22 12 19 2 32 13 43 33 8 17 16 32 17 34 2 2 12 -7 24 -20 l21 -24 -4 25
c-2 20 1 25 17 23 11 -1 22 2 25 7 9 14 60 24 60 11 0 -10 -4 -12 -25 -11 -8
1 -65 -30 -65 -35 0 -2 6 -2 13 1 8 3 20 -2 27 -11 7 -8 20 -15 29 -14 12 0
11 2 -4 8 -20 8 -20 8 0 14 11 4 35 3 53 -2 25 -8 32 -7 32 5 0 8 -8 14 -18
14 -25 0 -31 7 -25 31 4 14 11 18 24 14 18 -6 19 7 19 394 0 375 -1 401 -17
402 -10 1 -27 3 -38 4 -11 1 -27 0 -35 -3z m-595 -512 c3 -5 -1 -10 -9 -10 -9
0 -16 5 -16 10 0 6 4 10 9 10 6 0 13 -4 16 -10z m65 -270 c0 -5 -7 -10 -16
-10 -8 0 -12 5 -9 10 3 6 10 10 16 10 5 0 9 -4 9 -10z m-45 -30 c-3 -5 -10
-10 -16 -10 -5 0 -9 5 -9 10 0 6 7 10 16 10 8 0 12 -4 9 -10z"/>
<path d="M3310 1865 c0 -8 4 -15 10 -15 5 0 7 7 4 15 -4 8 -8 15 -10 15 -2 0
-4 -7 -4 -15z"/>
<path d="M1583 1818 c2 -7 1 -20 -4 -29 -4 -8 -4 -21 1 -29 10 -16 13 -11 24
43 5 21 3 27 -10 27 -8 0 -14 -6 -11 -12z"/>
<path d="M3311 1814 c0 -11 3 -14 6 -6 3 7 2 16 -1 19 -3 4 -6 -2 -5 -13z"/>
<path d="M1566 1654 c-9 -24 -7 -54 4 -54 6 0 10 16 10 35 0 38 -4 44 -14 19z"/>
<path d="M1531 1651 c-9 -6 -10 -11 -2 -15 6 -4 11 -15 10 -24 0 -14 -2 -13
-9 3 -7 15 -8 11 -6 -17 4 -57 46 -91 46 -38 0 13 -5 17 -15 14 -12 -5 -14 2
-9 40 7 49 7 50 -15 37z"/>
<path d="M1056 1471 c10 -10 21 -14 23 -8 4 10 -17 27 -33 27 -5 0 -1 -8 10
-19z"/>
<path d="M992 1390 c0 -19 2 -27 5 -17 2 9 2 25 0 35 -3 9 -5 1 -5 -18z"/>
<path d="M3140 1379 c0 -11 5 -17 10 -14 6 3 10 13 10 21 0 8 -4 14 -10 14 -5
0 -10 -9 -10 -21z"/>
<path d="M1010 1360 c1 -48 23 -158 36 -177 21 -33 42 -11 36 40 -4 39 -11 44
-30 25 -9 -9 -12 -2 -13 35 -2 63 -2 64 -16 79 -10 10 -13 9 -13 -2z"/>
<path d="M891 1313 c-1 -6 6 -18 14 -26 8 -8 12 -17 10 -19 -3 -3 2 -5 10 -5
8 0 16 6 19 14 3 7 -1 13 -9 13 -8 0 -15 5 -15 11 0 5 -4 8 -9 5 -5 -4 -12 0
-14 6 -4 9 -6 9 -6 1z"/>
<path d="M3150 1300 c-14 -10 -22 -22 -18 -25 9 -9 26 2 38 26 13 23 11 23
-20 -1z"/>
<path d="M1096 1195 c4 -8 8 -15 10 -15 2 0 4 7 4 15 0 8 -4 15 -10 15 -5 0
-7 -7 -4 -15z"/>
<path d="M1373 1153 c-17 -6 -16 -28 1 -43 8 -6 17 -21 19 -33 3 -13 5 -8 5
13 1 44 -9 68 -25 63z"/>
<path d="M3072 1130 c-7 -11 -9 -20 -4 -20 10 0 32 22 32 32 0 15 -15 8 -28
-12z"/>
<path d="M980 1128 c0 -4 19 -8 42 -8 23 0 38 3 34 7 -10 10 -76 11 -76 1z"/>
<path d="M1075 1120 c-4 -6 7 -10 25 -10 18 0 29 4 25 10 -3 6 -15 10 -25 10
-10 0 -22 -4 -25 -10z"/>
<path d="M3893 1115 c-14 -15 -7 -25 19 -25 21 0 23 7 5 24 -10 10 -15 10 -24
1z"/>
<path d="M0 1099 c0 -5 5 -7 10 -4 5 3 10 8 10 11 0 2 -4 4 -10 4 -5 0 -10 -5
-10 -11z"/>
<path d="M940 1100 c-14 -4 -19 -8 -12 -9 15 -1 16 -27 2 -36 -6 -4 -16 -3
-23 3 -20 15 -49 23 -42 11 8 -12 50 -29 80 -34 11 -1 26 -4 34 -6 8 -2 14 5
16 17 1 17 -3 20 -19 16 -21 -4 -21 -4 -1 11 11 8 24 13 30 10 5 -2 1 3 -9 11
-22 18 -20 17 -56 6z"/>
<path d="M3690 1100 c-8 -5 -11 -12 -7 -16 4 -4 13 -2 19 4 15 15 7 24 -12 12z"/>
<path d="M3843 1095 c-17 -19 -16 -25 2 -25 8 0 15 9 15 20 0 23 -1 24 -17 5z"/>
<path d="M3648 1093 c7 -3 16 -2 19 1 4 3 -2 6 -13 5 -11 0 -14 -3 -6 -6z"/>
<path d="M3950 1090 c0 -5 7 -10 16 -10 8 0 12 5 9 10 -3 6 -10 10 -16 10 -5
0 -9 -4 -9 -10z"/>
<path d="M1040 1076 c0 -2 7 -7 16 -10 8 -3 12 -2 9 4 -6 10 -25 14 -25 6z"/>
<path d="M2905 1060 c-14 -16 -15 -20 -4 -20 16 0 39 19 39 32 0 14 -16 9 -35
-12z"/>
<path d="M3260 1068 c-16 -7 -20 -12 -12 -15 8 -3 21 2 30 11 19 18 17 19 -18
4z"/>
<path d="M0 510 l0 -510 544 0 544 0 -14 58 c-16 67 -18 213 -4 262 11 38 18
88 24 161 2 25 9 72 16 104 7 32 9 79 6 104 -3 27 -1 52 5 61 9 12 10 12 5 -4
-6 -16 -4 -17 9 -6 18 15 19 27 3 27 -21 0 -88 44 -88 57 0 7 5 17 12 24 9 9
8 12 -5 12 -10 0 -17 -8 -17 -20 0 -13 -5 -18 -15 -15 -8 3 -22 7 -31 10 -12
4 -13 7 -2 19 7 8 16 12 20 9 4 -2 5 3 2 11 -3 8 -17 18 -32 22 -32 9 -32 9
-52 17 -27 10 -110 15 -116 6 -3 -5 -15 -4 -26 2 -12 6 -42 13 -67 15 -25 1
-89 9 -141 17 -52 7 -138 15 -190 16 -91 2 -220 19 -305 41 -22 5 -50 10 -62
10 l-23 0 0 -510z m870 386 c0 -3 -4 -8 -10 -11 -5 -3 -10 -1 -10 4 0 6 5 11
10 11 6 0 10 -2 10 -4z"/>
<path d="M3890 1005 c-36 -7 -123 -18 -195 -25 -165 -15 -205 -32 -303 -131
-87 -88 -98 -105 -163 -233 -52 -101 -71 -164 -114 -367 -14 -64 -34 -142 -45
-174 -11 -32 -20 -62 -20 -67 0 -4 223 -8 495 -8 l495 0 0 510 0 510 -42 -1
c-24 0 -72 -7 -108 -14z"/>
<path d="M2005 930 c3 -5 8 -10 11 -10 2 0 4 5 4 10 0 6 -5 10 -11 10 -5 0 -7
-4 -4 -10z"/>
<path d="M2395 910 c-3 -5 1 -10 9 -10 9 0 16 5 16 10 0 6 -4 10 -9 10 -6 0
-13 -4 -16 -10z"/>
<path d="M2530 900 c0 -5 7 -10 15 -10 8 0 15 5 15 10 0 6 -7 10 -15 10 -8 0
-15 -4 -15 -10z"/>
<path d="M2357 873 c-14 -13 -6 -24 15 -21 27 4 36 28 11 28 -11 0 -23 -3 -26
-7z"/>
<path d="M1094 861 c4 -5 2 -20 -3 -34 -9 -22 -7 -24 11 -19 14 3 19 1 15 -5
-5 -7 0 -9 13 -6 28 7 25 23 -4 23 -19 0 -22 4 -18 25 2 15 0 25 -7 25 -7 0
-10 -4 -7 -9z"/>
<path d="M2285 840 c-4 -6 5 -10 19 -10 14 0 26 5 26 10 0 6 -9 10 -19 10 -11
0 -23 -4 -26 -10z"/>
<path d="M3160 710 c0 -19 3 -21 12 -12 9 9 9 15 0 24 -9 9 -12 7 -12 -12z"/>
<path d="M2956 485 c-11 -8 -15 -15 -9 -15 6 0 16 7 23 15 16 19 11 19 -14 0z"/>
<path d="M1355 409 c-4 -6 -5 -12 -2 -15 2 -3 7 2 10 11 7 17 1 20 -8 4z"/>
<path d="M1336 314 c-8 -21 -8 -24 3 -24 5 0 11 9 14 20 6 24 -8 27 -17 4z"/>
<path d="M1320 229 c0 -5 10 -9 22 -9 12 0 18 3 14 7 -10 11 -36 12 -36 2z"/>
<path d="M1480 54 c0 -8 5 -12 10 -9 6 3 10 10 10 16 0 5 -4 9 -10 9 -5 0 -10
-7 -10 -16z"/>
</g>
</svg>
